<?xml version="1.0" encoding="utf-8"?>
<!-- Generator: Adobe Illustrator 18.1.1, SVG Export Plug-In . SVG Version: 6.00 Build 0)  -->
<svg version="1.1" id="Layer_1" xmlns="http://www.w3.org/2000/svg" xmlns:xlink="http://www.w3.org/1999/xlink" x="0px" y="0px"
	 viewBox="0 0 612 615" enable-background="new 0 0 612 615" xml:space="preserve">
<g id="Layer_2">
	<path fill="#4CBB17" d="M603.4,234c0-7.8,0-15.7,0-23.5h0v-76.4V38.5V10H10.5v28.5v95.5c0,25.5,0,50.9,0,76.4c0,8.4,0,16.8,0,25.2
		c0.7,0.2,1.3,0.3,2,0.5c5.2,1.5,10.5,2.7,15.6,4.4c2.8,0.9,5.8,1.7,8.7,2.5c3.9,1.1,7.7,2.3,11.6,3.5c1.9,0.6,3.8,1.3,5.8,1.9
		c4.6,1.4,9.1,2.7,13.7,4.1c1.1,0.3,2.1,0.8,3.2,1.2c1.3,0.5,2.7,0.9,4.1,1.3c2.7,0.9,5.4,1.8,8.2,2.7c3.3,1.1,6.5,2.3,9.8,3.4
		c3.1,1.1,6.3,2.1,9.5,3.2c1.5,0.5,2.8,1.1,4.3,1.6c2.5,0.9,5.1,1.6,7.5,2.6c6.3,2.3,12.5,4.6,18.8,7c6.1,2.3,12.2,4.5,18.3,6.9
		c6.6,2.6,13.1,5.3,19.6,7.9c5,2,10,4,14.9,6.1c6.6,2.7,13.1,5.5,19.6,8.3c14.7,6.3,29.4,12.8,43.8,19.6c7.5,3.5,15,6.9,22.5,10.5
		c11.1,5.4,22.2,10.9,33.3,16.4c0.6,0.3,1.1,0.5,1.7,0.8c0.8-0.4,1.5-0.7,2.2-1c9.9-4.9,19.6-9.9,29.6-14.6
		c12-5.7,24-11.4,36.2-16.9c19.6-8.9,39.4-17.6,59.6-25.7c12.3-4.9,24.4-10.1,36.9-14.7c9.6-3.5,19.2-7.2,28.9-10.8
		c7.3-2.7,14.8-5.1,22.2-7.7c6.8-2.3,13.5-4.7,20.3-6.9c6.5-2.1,13-4.1,19.6-6.2c5.3-1.6,10.7-3.3,16.1-4.8c5.8-1.7,11.7-3.4,17.5-5
		c2.5-0.7,5-1.4,7.5-2.2C603.4,234.9,603.4,234.4,603.4,234z M403,221.5c0,12.5-10.1,22.6-22.6,22.6c0,0-18.3,0-42,0
		c-10.1,0-26.3,40.9-32.3,40.9s-22.1-40.9-32.1-40.9c-23.8,0-42.2,0-42.2,0c-12.5,0-22.6-10.1-22.6-22.6V98.6
		c0-12.5,10.1-22.6,22.6-22.6h148.7c12.5,0,22.6,10.1,22.6,22.6V221.5z"/>
</g>
<path fill="#4CBB17" d="M10.5,284.9c1.1,0.4,2.2,0.7,3.3,1.2c2.8,1.1,5.6,2.3,8.4,3.4c4,1.6,8,3,11.9,4.7
	c11.7,4.9,23.4,9.8,35.1,14.8c15.5,6.7,30.6,13.9,45.7,21.1c19.2,9.2,38,19,56.7,28.9c9.9,5.3,19.7,10.9,29.4,16.4
	c7.9,4.5,15.8,9.2,23.6,13.8c1.6,0.9,3.1,1.9,4.7,2.8c0.4,0.2,0.7,0.5,1.1,0.8c-0.4,0.3-0.8,0.5-1.2,0.7
	c-18.1,10.2-35.9,20.7-53.5,31.5c-10.6,6.5-21.1,13.1-31.6,19.8c-10.3,6.6-20.6,13.3-30.8,20c-7.2,4.7-14.3,9.5-21.3,14.3
	c-8.1,5.5-16.2,11-24.3,16.6c-8.7,6.1-17.3,12.2-25.9,18.3c-7.8,5.6-15.6,11.2-23.3,16.8c-2.2,1.6-4.3,3.1-6.5,4.7
	c-0.4,0.3-0.9,0.5-1.4,0.8C10.5,452.3,10.5,368.6,10.5,284.9z"/>
<path fill="#4CBB17" d="M498.7,604.6c-0.6,0-1.1,0-1.7,0c-127,0-253.9,0-380.9,0c-0.4,0-0.7,0-1.1,0c0.5-0.6,1-1.3,1.6-1.9
	c9.5-9.3,18.9-18.6,28.5-27.8c8.9-8.5,18-17,27.2-25.4c6.1-5.6,12.4-11.2,18.8-16.7c7.7-6.7,15.5-13.4,23.4-20
	c6.7-5.6,13.4-11.1,20.3-16.6c8.1-6.5,16.2-13,24.5-19.3c10-7.7,20.2-15.2,30.5-22.7c5.4-3.9,10.9-7.7,16.4-11.5
	c0.2-0.1,0.4-0.2,0.7-0.4c1.5,1.1,3.1,2.1,4.6,3.1c8.4,6.1,16.9,12.1,25.2,18.2c10.4,7.8,20.8,15.6,30.9,23.5
	c8.7,6.8,17.2,13.7,25.6,20.7c10,8.3,19.9,16.7,29.7,25.2c8.1,7.1,16,14.2,23.9,21.5c9.3,8.6,18.5,17.2,27.6,25.9
	c8,7.7,15.8,15.5,23.7,23.2C498.2,604,498.4,604.3,498.7,604.6z"/>
<path fill="#4CBB17" d="M603.1,284.8c0.1,0.2,0.3,0.3,0.3,0.5c0,0.4,0,0.8,0,1.2c0,82.6,0,165.2,0,247.8c0,0.6-0.2,1.2-0.3,1.7
	c-7.9-5.7-15.9-11.5-23.8-17.2c-8.1-5.8-16.2-11.6-24.4-17.3c-9.8-6.8-19.6-13.7-29.5-20.4c-12.3-8.3-24.6-16.5-37-24.6
	c-10.2-6.6-20.4-13.2-30.7-19.7c-9.3-5.8-18.7-11.6-28.1-17.3c-14.7-8.9-29.6-17.7-44.7-26.2c-0.4-0.2-0.8-0.5-1.3-0.8
	c1.2-0.7,2.2-1.3,3.2-2c13.2-8.1,26.9-15.7,40.5-23.4c11.5-6.5,23.4-12.6,35.1-18.8c16.4-8.6,33.2-16.7,50-24.8
	c12.2-5.9,24.7-11.4,37.2-16.9c14.8-6.5,29.8-12.7,45-18.6C597.4,287.1,600.2,286,603.1,284.8z"/>
</svg>
