<?xml version="1.0" encoding="UTF-8"?>
<svg width="100pt" height="100pt" version="1.1" viewBox="0 0 100 100" xmlns="http://www.w3.org/2000/svg">
 <path d="m80.629 26.176c-5.2852-11.094-15.191-19.289-27.074-22.414-11.883-3.1211-24.539-0.85156-34.594 6.207-10.055 7.0586-16.492 18.191-17.594 30.426-1.1016 12.238 3.2422 24.34 11.875 33.078l-6.793 8.7773 0.003906 0.003906c-0.71094 0.91797-0.83984 2.1641-0.32422 3.207 0.51172 1.0469 1.5742 1.707 2.7344 1.707 0.22266 0 0.44141-0.023438 0.66016-0.070313l18.305-4.0391c4.8164 1.8711 9.9414 2.8281 15.109 2.8203 1.0273 0 2.0469-0.035156 3.0625-0.10938 6.8164 4.2617 14.906 6.0195 22.875 4.9648l13.555 6.5469h0.003906c1.1562 0.55859 2.5352 0.33203 3.457-0.5625 0.91797-0.89844 1.1758-2.2734 0.64453-3.4414l-3.5195-7.7617h0.003906c10.25-6.6211 16.238-18.164 15.746-30.355-0.48828-12.191-7.3867-23.219-18.137-28.992zm-51.367 50.891v-0.003906c-0.57812-0.23828-1.2188-0.29688-1.8281-0.16016l-11.008 2.4297 3.332-4.3086v0.003906c0.98438-1.2734 0.8125-3.0898-0.39453-4.1523-8.9805-7.9453-13.344-19.887-11.602-31.75 1.7383-11.863 9.3477-22.047 20.23-27.078 10.883-5.0312 23.57-4.2266 33.734 2.1328 10.164 6.3594 16.434 17.418 16.668 29.406 0.23438 11.988-5.5977 23.285-15.508 30.035-9.9062 6.7539-22.555 8.0469-33.625 3.4453zm62.668-13.961v-0.003907c-1.8828 7.9219-7.0742 14.656-14.258 18.492-1.418 0.75781-2.0039 2.4844-1.3398 3.9492l1.1758 2.5898-6.8242-3.2969v0.003906c-0.5625-0.27344-1.1992-0.36328-1.8164-0.26562-3.6875 0.60156-7.4609 0.46484-11.094-0.40234-0.53516-0.125-1.0625-0.26953-1.5859-0.42578 8.2969-2.7891 15.508-8.1094 20.617-15.215 5.1133-7.1055 7.8633-15.633 7.8711-24.387 0-2.7422-0.26562-5.4766-0.79297-8.168 7.3242 6.9609 10.387 17.297 8.0469 27.125zm-64.625-21.367v1.5273c-0.03125 1.6602-1.3867 2.9922-3.0508 2.9922-1.6641 0-3.0195-1.332-3.0508-2.9922v-1.5273c0.03125-1.6602 1.3867-2.9922 3.0508-2.9922 1.6641 0 3.0195 1.332 3.0508 2.9922zm18.68 0v1.5273c0 1.6836-1.3633 3.0508-3.0469 3.0508-1.6875 0-3.0508-1.3672-3.0508-3.0508v-1.5273c0-1.6836 1.3633-3.0469 3.0508-3.0469 1.6836 0 3.0469 1.3633 3.0469 3.0469zm18.684 0v1.5273c0 1.6836-1.3672 3.0508-3.0508 3.0508-1.6836 0-3.0508-1.3672-3.0508-3.0508v-1.5273c0-1.6836 1.3672-3.0469 3.0508-3.0469 1.6836 0 3.0508 1.3633 3.0508 3.0469z" fill="#70925b"/>
</svg>
