<?xml version="1.0" encoding="UTF-8"?>
<svg width="100pt" height="100pt" version="1.1" viewBox="0 0 100 100" xmlns="http://www.w3.org/2000/svg">
 <path d="m82.996 80.172h-18.367c-4.4219 0-9.2734 14.129-14.129 14.129-4.8203 0-9.6445-14.129-14.039-14.129h-18.457c-5.4648 0-9.8906-4.4297-9.8906-9.8906l-0.003906-53.691c0-5.4609 4.4297-9.8906 9.8906-9.8906h64.996c5.4609 0 9.8906 4.4297 9.8906 9.8906v53.691c0 5.4609-4.4258 9.8906-9.8906 9.8906zm4.2383-62.168c0-3.1211-2.5312-5.6523-5.6523-5.6523h-62.168c-3.1211 0-5.6523 2.5312-5.6523 5.6523v50.867c0 3.1211 2.5312 5.6523 5.6523 5.6523h19.867c3.6406 0 7.3398 12.719 11.215 12.719 3.7266 0 7.6211-12.719 11.129-12.719h19.957c3.1211 0 5.6523-2.5312 5.6523-5.6523z" fill="#70925b" fill-rule="evenodd"/>
</svg>
