<?xml version="1.0" encoding="UTF-8"?>
<svg width="100pt" height="100pt" version="1.1" viewBox="0 0 100 100" xmlns="http://www.w3.org/2000/svg">
 <path d="m84.508 15.492c-12.328-12.328-30.297-17.145-47.137-12.629-16.844 4.5117-29.996 17.664-34.508 34.508-4.5156 16.84 0.30078 34.809 12.629 47.137 12.328 12.328 30.297 17.145 47.137 12.629 16.844-4.5117 29.996-17.664 34.508-34.508 4.5156-16.84-0.30078-34.809-12.629-47.137zm-31.457 77.098v-3.1289c0-1.6836-1.3672-3.0508-3.0508-3.0508s-3.0508 1.3672-3.0508 3.0508v3.1289c-10.238-0.74609-19.867-5.1523-27.129-12.41-7.2578-7.2617-11.664-16.891-12.41-27.129h3.1289c1.6836 0 3.0508-1.3672 3.0508-3.0508s-1.3672-3.0508-3.0508-3.0508h-3.1289c0.74609-10.238 5.1523-19.867 12.41-27.129 7.2617-7.2578 16.891-11.664 27.129-12.41v3.1289c0 1.6836 1.3672 3.0508 3.0508 3.0508s3.0508-1.3672 3.0508-3.0508v-3.1289c10.238 0.74609 19.867 5.1523 27.129 12.41 7.2578 7.2617 11.664 16.891 12.41 27.129h-3.1289c-1.6836 0-3.0508 1.3672-3.0508 3.0508s1.3672 3.0508 3.0508 3.0508h3.1289c-0.74609 10.238-5.1523 19.867-12.41 27.129-7.2617 7.2578-16.891 11.664-27.129 12.41zm18.379-68.129-30.113 15.539c-0.56641 0.28906-1.0273 0.75-1.3164 1.3164l-15.543 30.109c-0.60938 1.1797-0.38672 2.6211 0.55078 3.5586 0.94141 0.94141 2.3828 1.1641 3.5625 0.55469l30.113-15.539c0.56641-0.28906 1.0273-0.75 1.3164-1.3164l15.543-30.109c0.60938-1.1797 0.38672-2.6211-0.55078-3.5586-0.94141-0.94141-2.3828-1.1641-3.5625-0.55469zm-27.918 23.363 8.668 8.668-17.914 9.2422zm12.98 4.3516-8.668-8.668 17.91-9.2422z" fill="#70925b"/>
</svg>
