<?xml version="1.0" encoding="UTF-8"?>
<svg width="100pt" height="100pt" version="1.1" viewBox="0 0 100 100" xmlns="http://www.w3.org/2000/svg">
 <path d="m47.359 79.801c0.54297 0.94531 1.5508 1.5273 2.6406 1.5273s2.0977-0.58203 2.6406-1.5273c3.3789-5.4727 7.0625-10.746 11.039-15.801 8.3828-11.137 17.051-22.656 17.051-32.07 0-10.98-5.8594-21.125-15.367-26.613-9.5078-5.4883-21.219-5.4883-30.727 0-9.5078 5.4883-15.367 15.633-15.367 26.613 0 9.4141 8.668 20.934 17.051 32.07 3.9766 5.0547 7.6602 10.328 11.039 15.801zm2.6406-72.5c6.5312 0.003907 12.789 2.6016 17.406 7.2188 4.6172 4.6172 7.2148 10.879 7.2227 17.41 0 7.375-8.043 18.066-15.824 28.402-3.0469 4.0547-6.1758 8.207-8.8047 12.18-2.6289-3.9727-5.7578-8.125-8.8086-12.18-7.7773-10.332-15.824-21.027-15.824-28.402h0.003906c0.007812-6.5312 2.6055-12.793 7.2227-17.41 4.6172-4.6172 10.875-7.2148 17.406-7.2188zm14.52 22c-0.003906-3.8516-1.5312-7.543-4.2539-10.266s-6.418-4.2539-10.266-4.2539c-3.8516 0-7.543 1.5312-10.266 4.2539s-4.2539 6.4141-4.2539 10.266c0 3.8516 1.5312 7.543 4.2539 10.266s6.4141 4.25 10.266 4.25c3.8477-0.003906 7.5391-1.5352 10.262-4.2539 2.7188-2.7227 4.25-6.4141 4.2578-10.262zm-22.938 0c0-3.4062 2.0508-6.4766 5.1992-7.7773 3.1445-1.3047 6.7656-0.58203 9.1719 1.8242s3.125 6.0273 1.8242 9.1758c-1.3047 3.1445-4.3711 5.1953-7.7773 5.1953-4.6484-0.007812-8.4141-3.7734-8.418-8.418zm42.777 48.977c0 11.508-15.094 20.523-34.359 20.523-19.27 0-34.359-9.0156-34.359-20.523 0-6.2461 4.5195-12.035 12.398-15.891 0.73047-0.36328 1.5703-0.42188 2.3438-0.16016 0.76953 0.26172 1.4062 0.81641 1.7617 1.5508 0.35938 0.73047 0.40625 1.5742 0.14062 2.3398-0.26953 0.76953-0.83203 1.3984-1.5664 1.75-5.707 2.7891-8.9805 6.5859-8.9805 10.41 0 3.5117 2.6992 6.957 7.6055 9.6914 5.4648 3.0508 12.801 4.7305 20.652 4.7305 7.8516 0 15.188-1.6797 20.652-4.7305 4.9062-2.7383 7.6055-6.1797 7.6055-9.6914 0-3.8242-3.2695-7.6172-8.9766-10.406h0.007812c-0.72656-0.35547-1.2812-0.98438-1.5469-1.75-0.26172-0.76562-0.21094-1.6055 0.14453-2.332 0.74219-1.5117 2.5703-2.1406 4.082-1.3984 7.8789 3.8516 12.395 9.6406 12.395 15.887z" fill="#70925b"/>
</svg>
