<?xml version="1.0" encoding="UTF-8"?>
<svg width="100pt" height="100pt" version="1.1" viewBox="0 0 100 100" xmlns="http://www.w3.org/2000/svg">
 <path d="m43.648 35.598c0-8.4688 6.8906-15.355 15.355-15.355 8.4688 0 15.355 6.8906 15.355 15.355 0 8.4688-6.8867 15.355-15.355 15.355s-15.355-6.8906-15.355-15.355zm15.355 19.297c-18.766 0-33.32 11.164-33.32 20.77 0 10.871 16.016 12.367 33.32 12.367 17.305 0 33.32-1.4961 33.32-12.367 0-9.6094-14.555-20.77-33.32-20.77zm-27.215 1.5039c0.80078 0 1.5977-0.25 2.2773-0.74219 1.2031-0.875 1.793-2.3281 1.543-3.793l-0.89453-5.2227 3.7969-3.6992c1.0664-1.0391 1.4414-2.5625 0.98047-3.9766-0.46094-1.4141-1.6602-2.4258-3.1328-2.6406l-5.2461-0.76172-2.3438-4.7539c-0.66016-1.332-1.9922-2.1602-3.4766-2.1602-1.4883 0-2.8203 0.82812-3.4805 2.1641l-2.3438 4.7539-5.2461 0.76172c-1.4727 0.20703-2.6719 1.2188-3.1328 2.6328-0.46094 1.4141-0.085938 2.9375 0.98047 3.9766l3.793 3.6992-0.89844 5.2266c-0.25 1.4648 0.33984 2.918 1.543 3.793 1.2031 0.87109 2.7734 0.98828 4.0859 0.29297l4.6914-2.4648 4.6914 2.4648c0.57813 0.30078 1.1992 0.44922 1.8125 0.44922z" fill="#4cba17"/>
</svg>
