<?xml version="1.0" encoding="UTF-8"?>
<svg width="100pt" height="100pt" version="1.1" viewBox="0 0 100 100" xmlns="http://www.w3.org/2000/svg">
 <path d="m64.449 52.422c7.7266 0 14.012-6.2852 14.012-14.012 0-7.7266-6.2852-14.012-14.012-14.012-7.7266 0-14.012 6.2852-14.012 14.012 0 7.7227 6.2852 14.012 14.012 14.012zm30.402 22.543c0 9.918-14.609 11.285-30.402 11.285-15.789 0-30.402-1.3672-30.402-11.285 0-8.7617 13.281-18.949 30.402-18.949 17.121 0 30.402 10.188 30.402 18.949zm-54.219-56.004c-3.6992-3.8047-8.8164-5.9883-14.047-5.9883-10.824 0-19.625 9.0742-19.625 20.227 0 14.035 17.746 28.055 18.504 28.645 0.32812 0.25781 0.72656 0.38672 1.1211 0.38672 0.40234 0 0.80469-0.13281 1.1406-0.39844 0.73828-0.58984 18.078-14.59 18.484-28.578 0.15234-5.3594-1.8281-10.434-5.5781-14.293zm-14.043 19.008c-3.2578 0-5.9102-2.7383-5.9102-6.1016 0-3.3672 2.6484-6.1016 5.9102-6.1016 3.2578 0 5.9102 2.7383 5.9102 6.1016 0 3.3633-2.6523 6.1016-5.9102 6.1016z" fill="#4cba17"/>
</svg>
