<?xml version="1.0" encoding="UTF-8"?>
<svg width="100pt" height="100pt" version="1.1" viewBox="0 0 100 100" xmlns="http://www.w3.org/2000/svg">
 <path d="m67.473 52.656c6.5156 0 11.816-5.3008 11.816-11.816s-5.3008-11.816-11.816-11.816-11.816 5.3008-11.816 11.816 5.3008 11.816 11.816 11.816zm25.641 19.016c0 8.3633-12.324 9.5156-25.641 9.5156s-25.641-1.1523-25.641-9.5156c0-7.3906 11.199-15.98 25.641-15.98 14.441-0.003906 25.641 8.5898 25.641 15.98zm-51.461-12.859c-0.23047 0.125-0.48438 0.1875-0.73828 0.1875-0.28906 0-0.57422-0.082031-0.82812-0.24219l-11.496-7.332-18.988 0.003907c-0.85156 0-1.5391-0.6875-1.5391-1.5391v-24.055c0-0.85156 0.6875-1.5391 1.5391-1.5391h40.09c0.85156 0 1.5391 0.6875 1.5391 1.5391v24.059c0 0.85156-0.6875 1.5391-1.5391 1.5391h-7.2422v6.0312c0 0.5625-0.30469 1.0781-0.79688 1.3477z" fill="#4cba17"/>
</svg>
